<svg xmlns="http://www.w3.org/2000/svg" viewBox="0 0 72.47 204.34"><defs><style>.cls-1,.cls-3{fill:#231f20;}.cls-2{fill:#fff;}.cls-3{stroke:#231f20;stroke-miterlimit:10;}</style></defs><title>vertical</title><g id="Capa_2" data-name="Capa 2"><g id="logo_final" data-name="logo final"><g id="vertical"><polygon class="cls-1" points="29.45 166.73 29.43 165.85 29.85 165.8 29.85 166.67 29.45 166.73"/><polygon class="cls-1" points="29.45 156.73 29.47 156.03 29.85 156.03 29.87 156.75 29.45 156.73"/><polygon class="cls-1" points="29.46 148.62 29.43 147.87 29.87 147.87 29.87 148.68 29.46 148.62"/><polygon class="cls-1" points="29.49 134.01 29.44 133.43 29.87 133.43 29.87 134.13 29.49 134.01"/><polygon class="cls-1" points="29.45 126.83 29.49 126.19 29.87 126.19 29.82 126.88 29.45 126.83"/><polygon class="cls-1" points="29.45 118.94 29.45 118.33 29.87 118.34 29.85 119.01 29.45 118.94"/><polygon class="cls-1" points="52.46 168.16 52.46 167.53 52.87 167.53 52.87 168.27 52.46 168.16"/><polygon class="cls-1" points="52.46 160.64 52.46 159.99 52.87 159.99 52.87 160.68 52.46 160.64"/><polygon class="cls-1" points="52.46 150.48 52.46 149.78 52.86 149.78 52.86 150.59 52.46 150.48"/><polygon class="cls-1" points="52.45 138.5 52.47 139.19 52.84 139.2 52.87 138.5 52.45 138.5"/><polygon class="cls-1" points="28.39 90.97 28.39 90.47 28.21 90.47 28.02 90.98 28.39 90.97"/><polygon class="cls-2" points="29.47 87.08 29.69 87.19 29.5 87.71 29.27 87.54 29.47 87.08"/><path class="cls-3" d="M15.79,194.51s18.34,15.31,39.62,6.71c26.93-10.89,7.17-44.14,7.17-44.14S74,151,71.64,131.9c-2.44-19.46-34.58-28.31-34.58-28.31L35.7,53.42S46,50.65,47.42,41.34C49,31.63,39.6,26.23,39.6,26.23A11.35,11.35,0,0,0,43.18,14C40.46,5.16,30.47.75,30.47.75s-1.87,41.07-6.42,51.6C19.19,63.61,13.59,62.48,9.76,61c-6.15-2.42-5.28-7.58-3.9-9.39,3.59-4.69,8.34,4.68,8.34,4.68s3.14-9.12-5.37-10.69C3.5,44.59,1,50.38.57,53.15c-.49,3.13,1.37,10,7.83,12.27C13.34,67.14,20.68,67.87,27,54.79c5-10.41,6.38-46.86,6.38-46.86s3.1-.28,6,5.49c3.18,6.3-3.05,13.42-3.05,13.42s11.47,6.59,8.39,15.82c-2.4,7.17-11.82,8.64-11.82,8.64l-1.61,56.62s35.81,6.53,36.17,26.93c.26,15-10.4,21.73-10.4,21.73s19.37,30.29-4.7,39.14c-13.49,4.95-25.73.64-36.79-6.62Z"/><circle class="cls-3" cx="15.51" cy="36.62" r="4.33"/><circle class="cls-3" cx="19.84" cy="23.44" r="3.52"/><circle class="cls-3" cx="21.91" cy="13.04" r="2.65"/><circle class="cls-3" cx="23.41" cy="3.41" r="1.9"/><path class="cls-1" d="M22.7,172.22v-1.14c.06-.55.23-.83.51-.83s.28.2.28.61l0,.8v1.17l3.21,2.53q3.21,2.58,3.21,2.85t-.36.45a1.13,1.13,0,0,1-.56.19q-.39,0-5.5-4.24v1q0,2,.22,6l3.59,4.21,1.46,1.63c.77.88,1.15,1.41,1.15,1.6s-.12.35-.36.35-1.45-1.2-3.44-3.59L23.7,183c.18,3.8.37,5.77.57,5.89h0c.16,0,.24-.59.24-1.78l0-1.66c0-.23.05-.34.15-.34s.35.91.35,2.71c0,1.55-.19,2.32-.58,2.32s-.84-.46-1-1.37a17.48,17.48,0,0,1-.19-1.92L22.88,182q-2.43-2.94-6.31-8.4-4.92-7-4.92-8.3c0-.45.29-.67.87-.67s1.46.58,2.92,1.75Zm0,1.78-7.09-5.83-1.32-1.08a7.65,7.65,0,0,0-1.36-.92l0,0c-.09,0-.13,0-.13.12q0,.58,5,7.4l5.08,6.85Z"/><path class="cls-1" d="M24.37,166.82a3.75,3.75,0,0,1-.5.07q-.33,0-1.05-.81c-.48-.53-.72-.9-.72-1.1s.09-.28.27-.28a1.8,1.8,0,0,1,.74.31c0-.94.38-1.41,1.12-1.41.59,0,1.53.6,2.81,1.81a10.55,10.55,0,0,0,2.17,1.81.23.23,0,0,0,.25-.23v-.41c0-.11.06-.17.2-.17s.26.24.26.73-.28.92-.82.92a3.66,3.66,0,0,1-2-.92,18.59,18.59,0,0,1-1.88-1.7,6.69,6.69,0,0,0-1-.92c-.13,0-.19.07-.19.21a3.6,3.6,0,0,0,.14.71,2.09,2.09,0,0,0,.23.61q5.49,5.79,5.49,7.81c0,.09-.06.14-.17.14s-.24-.11-.28-.33a4.87,4.87,0,0,0-.38-1.08,15.11,15.11,0,0,0-2.13-3A28.62,28.62,0,0,0,24.37,166.82Z"/><path class="cls-1" d="M27.07,161.16c.91,1.17,1.48,1.92,1.69,2.25A5.26,5.26,0,0,1,29.87,166c0,.11-.05.17-.15.17s-.25-.1-.3-.3a9.43,9.43,0,0,0-1.82-3.28l-2.77-3.48c-1.23-1.68-1.84-2.94-1.84-3.8,0-.7.39-1,1.18-1-.45-.39-.67-.67-.67-.83s.14-.36.41-.36,2.11,1.39,5.57,4.18c0,0,0-.15,0-.29a1.42,1.42,0,0,1,0-.27c0-.11.06-.16.2-.16s.24.16.27.48l0,.65q7.51,6.06,7.51,8.91c0,.78-.33,1.17-1,1.17q-1.58,0-3.69-2.33a14.33,14.33,0,0,1-3.1-6.48,21.73,21.73,0,0,0-2.18-1.73c.74.84,1.19,1.38,1.35,1.6a3.48,3.48,0,0,1,.83,1.89c0,.61-.37.91-1.1.91A3.47,3.47,0,0,1,27.07,161.16ZM24,154.7c-.3,0-.45.14-.45.41,0,.53.73,1.56,2.18,3.07s2.47,2.27,3.05,2.27c.21,0,.31-.08.31-.24,0-.46-.7-1.48-2.1-3.07S24.52,154.7,24,154.7Zm6.33,4.66a13.37,13.37,0,0,0,2.8,5.35c1.41,1.71,2.53,2.57,3.35,2.57.35,0,.52-.15.52-.46,0-.69-.92-2-2.78-3.89A42.65,42.65,0,0,0,30.3,159.36Z"/><path class="cls-1" d="M27.85,151.43A12,12,0,0,0,29,153.77a5.31,5.31,0,0,1,.87,2.3c0,.1-.06.15-.17.15s-.24-.11-.28-.33a6.94,6.94,0,0,0-.93-2.14,9.71,9.71,0,0,1-1.08-2.47,8,8,0,0,1-2.9-2.37,5.46,5.46,0,0,1-1.63-3.25q0-1,.84-1c.74,0,1.54.7,2.42,2.1a15.19,15.19,0,0,1,1.51,3.16,2,2,0,0,0,.83.18.82.82,0,0,0,.84-.45,2.85,2.85,0,0,0,.11-.86c0-.3.08-.45.22-.45s.32.51.32,1.54-.47,1.62-1.41,1.62A3.86,3.86,0,0,1,27.85,151.43Zm-.69-1.65a15.72,15.72,0,0,0-1.52-2.41c-.84-1.13-1.5-1.69-2-1.69q-.3,0-.3.27c0,.54.5,1.27,1.49,2.2A8.27,8.27,0,0,0,27.16,149.78Z"/><path class="cls-1" d="M24.31,139.74l3.28,4q2.28,3,2.28,4.21c0,.1-.06.15-.17.15a.29.29,0,0,1-.28-.25,6.1,6.1,0,0,0-.49-1.41,31.32,31.32,0,0,0-2.4-3.29q-.88-1.12-2.81-3.26c-.55-.53-.83-.91-.83-1.14,0-.46.15-.7.45-.7a5.94,5.94,0,0,1,2.37,1.41q-2.49-2.72-2.49-3.75a1,1,0,0,1,.22-.63.68.68,0,0,1,.56-.29,3.06,3.06,0,0,1,1.45.67q-2.47-2.51-2.47-4c0-.56.22-.84.67-.84s1.57.68,3,2,2.23,2,2.51,2,.33-.15.33-.44.08-.44.21-.44.25.25.25.73c0,.65-.29,1-.86,1s-1.65-.59-3-1.78A11.65,11.65,0,0,0,23.8,132c-.1,0-.15.06-.15.19,0,.49.78,1.58,2.35,3.26a34.62,34.62,0,0,0,3.15,3.06c.5.4.74.69.74.88s-.14.49-.44.49-1.19-.65-2.64-2S24.46,136,24.12,136c-.15,0-.22.08-.22.25,0,.43.72,1.41,2.16,2.95A28.4,28.4,0,0,0,29,142c.55.43.83.8.83,1.11s-.13.43-.38.43a8.33,8.33,0,0,1-2.62-1.73Z"/><path class="cls-1" d="M20.5,122.06a.53.53,0,0,1-.61.59A1.13,1.13,0,0,1,19,122,1.91,1.91,0,0,1,18.6,121c0-.43.23-.65.7-.65a1,1,0,0,1,.88.65A2.24,2.24,0,0,1,20.5,122.06Zm8.61,5.5c.22,0,.34-.25.34-.74,0-.11.06-.16.2-.16s.24.28.24.83-.29.94-.89.94-2.15-.93-4.37-2.78l2.78,3.4c1.64,2,2.46,3.46,2.46,4.37,0,.1-.06.15-.17.15a.28.28,0,0,1-.28-.25,4.67,4.67,0,0,0-.51-1.43,35.72,35.72,0,0,0-2.52-3.44l-3.19-3.81a2,2,0,0,1-.09-.67c0-.28.16-.42.49-.42s1.28.67,2.81,2S28.84,127.56,29.11,127.56Z"/><path class="cls-1" d="M24.37,119.19l-.5.06c-.22,0-.57-.26-1.05-.8s-.72-.9-.72-1.1.09-.29.27-.29a2,2,0,0,1,.74.31c0-.93.38-1.4,1.12-1.4.59,0,1.53.6,2.81,1.81a10.55,10.55,0,0,0,2.17,1.81.23.23,0,0,0,.25-.23V119c0-.11.06-.17.2-.17s.26.24.26.72-.28.92-.82.92a3.59,3.59,0,0,1-2-.92,18.29,18.29,0,0,1-1.88-1.69,6.06,6.06,0,0,0-1-.92c-.13,0-.19.07-.19.21a3.55,3.55,0,0,0,.14.7,2.21,2.21,0,0,0,.23.62q5.49,5.79,5.49,7.8c0,.1-.06.15-.17.15s-.24-.11-.28-.34A5.25,5.25,0,0,0,29,125a15.42,15.42,0,0,0-2.13-3A27.45,27.45,0,0,0,24.37,119.19Z"/><path class="cls-1" d="M26.55,112.84l1.95,2.57a6.22,6.22,0,0,1,1.37,2.93.13.13,0,0,1-.15.15.28.28,0,0,1-.3-.25A4.16,4.16,0,0,0,29,117a26,26,0,0,0-2.18-3l-2.69-3.28c-.56-.63-.83-1-.83-1.16a1,1,0,0,1,.35-.69,2.2,2.2,0,0,1-.55-1.28c0-.56.3-.84.91-.84q1.35,0,3.69,2.16c1.58,1.47,2.37,2.66,2.37,3.56s-.45,1.27-1.34,1.27A5.32,5.32,0,0,1,26.55,112.84Zm0-4.22a6.13,6.13,0,0,0-1.18-.92,3,3,0,0,0-1.38-.51c-.32,0-.47.14-.47.41a1.66,1.66,0,0,0,.76,1.23,2.36,2.36,0,0,0,1.4.62C26.16,109.45,26.46,109.17,26.57,108.62ZM25,109.84c1.48,1.7,2.68,2.54,3.62,2.54.4,0,.59-.19.59-.57,0-.62-.75-1.59-2.26-2.91a1.24,1.24,0,0,1-1.34,1A1.94,1.94,0,0,1,25,109.84Z"/><path class="cls-1" d="M37.94,169.17a11.49,11.49,0,0,1,4.51,2.62q2.82,2.39,2.82,4.06c0,.66-.32,1-1,1q-1.43,0-3.81-2.62a15.23,15.23,0,0,1-2.81-4.07,1.77,1.77,0,0,0-.65-.14c-.64,0-.95.35-.95,1.06q0,2.27,2.62,6.26a45.88,45.88,0,0,0,5.8,7.16q3.57,3,5.94,3c1.26,0,1.9-.75,1.9-2.26a8.89,8.89,0,0,0-.88-3.59,17.52,17.52,0,0,0-1.66-2.8l-.88-1.18c0-.13.12-.2.36-.2.6,0,1.28.59,2.05,1.77a15.75,15.75,0,0,1,1.38,2.62,7.3,7.3,0,0,1,.6,2.82,3.92,3.92,0,0,1-.95,2.65,3.2,3.2,0,0,1-2.53,1.13q-3.29,0-7.22-4a27.2,27.2,0,0,1-5.05-6.91c-1.41-2.78-2.12-4.91-2.12-6.37a1.83,1.83,0,0,1,1.9-2.11,1.83,1.83,0,0,1-.14-.59c0-.15.07-.22.23-.22S37.75,168.59,37.94,169.17Zm.44,1.25a13.72,13.72,0,0,0,3.12,4c1.35,1.23,2.22,1.84,2.61,1.84q.27,0,.27-.21c0-.58-.83-1.59-2.51-3A21.26,21.26,0,0,0,38.38,170.42Z"/><path class="cls-1" d="M50.25,173.1q2.63,3.32,2.62,4.58c0,.1-.06.14-.17.14s-.24-.09-.28-.29a8.13,8.13,0,0,0-1.8-3.24l-1.26-1.6-2-2.58a5.62,5.62,0,0,1-1.22-3A.94.94,0,0,1,47,166c-.3-.32-.46-.55-.46-.67,0-.28.11-.41.34-.41s1.18.63,2.67,1.91a10.13,10.13,0,0,0,2.59,1.91c.18,0,.27-.14.27-.41s.08-.41.22-.41.26.28.26.84-.25.84-.74.84A3.62,3.62,0,0,1,50.5,169l1.31,1.55a3.36,3.36,0,0,1,.85,1.8,1,1,0,0,1-1.09,1.07A3.6,3.6,0,0,1,50.25,173.1Zm-3.65-6.19c0,.49.73,1.5,2.19,3s2.44,2.3,2.93,2.3c.23,0,.34-.11.34-.32,0-.48-.72-1.49-2.15-3.05s-2.4-2.33-2.9-2.33C46.73,166.55,46.6,166.67,46.6,166.91Z"/><path class="cls-1" d="M44.74,157.56l.18,4.48c0,.25-.07.38-.2.38s-.19-.21-.25-.61c-.09-.57-.17-1.38-.24-2.42s-.13-2-.18-2.42l-2.13-1.78c-1.13-1-1.69-1.53-1.69-1.73s.15-.38.47-.38,1.46.76,3.35,2.27c-.06-.87-.09-1.59-.09-2.17,0-.38.07-.57.22-.57s.28.46.34,1.38l.06,1.89,3.47,2.78c2.28,1.75,3.63,2.62,4.07,2.62.21,0,.32-.14.32-.42s.07-.42.21-.42.24.18.24.55c0,.73-.29,1.1-.89,1.1a4.79,4.79,0,0,1-2-.72l-1.82-1.08,2.9,3.68c1.21,1.54,1.82,2.72,1.82,3.55,0,.1-.06.15-.17.15a.28.28,0,0,1-.28-.25,8.55,8.55,0,0,0-.43-1.28,35.26,35.26,0,0,0-2.69-3.71c-1.1-1.42-1.81-2.31-2.15-2.68A21.38,21.38,0,0,0,44.74,157.56Z"/><path class="cls-1" d="M50.25,155.42c1.75,2.22,2.62,3.74,2.62,4.58,0,.1-.06.15-.17.15s-.24-.1-.28-.3a8,8,0,0,0-1.8-3.23L49.36,155l-2-2.58a5.57,5.57,0,0,1-1.22-3,.94.94,0,0,1,.93-1c-.3-.33-.46-.55-.46-.68s.11-.41.34-.41,1.18.64,2.67,1.91a9.84,9.84,0,0,0,2.59,1.91c.18,0,.27-.13.27-.41s.08-.41.22-.41.26.28.26.85-.25.83-.74.83a3.58,3.58,0,0,1-1.67-.67l1.31,1.54a3.41,3.41,0,0,1,.85,1.81,1,1,0,0,1-1.09,1.07A3.63,3.63,0,0,1,50.25,155.42Zm-3.65-6.18q0,.73,2.19,3c1.47,1.54,2.44,2.3,2.93,2.3.23,0,.34-.1.34-.32,0-.47-.72-1.49-2.15-3s-2.4-2.33-2.9-2.33C46.73,148.88,46.6,149,46.6,149.24Z"/><path class="cls-1" d="M43.7,138.74a.93.93,0,0,0,.32.57c.22.22.33.36.33.43s-.07.21-.22.21a1.47,1.47,0,0,1-.85-.53c-.36-.35-.54-.63-.54-.85a4.75,4.75,0,0,1,.41-1.4,4.41,4.41,0,0,0,.41-1.49.93.93,0,0,0-.32-.66c-.21-.21-.31-.34-.31-.39s0-.12.15-.12a1.29,1.29,0,0,1,.85.51,1.36,1.36,0,0,1,.49.9,4.76,4.76,0,0,1-.36,1.49A4.79,4.79,0,0,0,43.7,138.74Zm5.4,2.8q-2.9-3.42-2.9-4.8c0-.59.28-.88.83-.88s1.38.67,2.66,2,2.06,2,2.32,2,.41-.15.43-.45.09-.45.22-.45.25.3.25.9-.31,1-.93,1a3.39,3.39,0,0,1-1.95-1,25.58,25.58,0,0,1-1.89-1.84c-.63-.66-1-1-1.14-1s-.17.08-.17.23c0,.47.64,1.5,1.9,3.08a30.67,30.67,0,0,0,2.58,2.94c.86.81,1.29,1.31,1.29,1.48a.46.46,0,0,1-.2.36.62.62,0,0,1-.4.17,10.51,10.51,0,0,1-2.32-1.72l-2.42-2.06,2.59,3.19,1.8,2.35a5.72,5.72,0,0,1,1.22,2.75c0,.11,0,.16-.15.16s-.25-.11-.3-.34a5,5,0,0,0-.37-1.11,24.09,24.09,0,0,0-2.66-3.71C48,143.15,47,142,46.26,141.21a4.83,4.83,0,0,1-.45-.59,1.16,1.16,0,0,1-.07-.42.84.84,0,0,1,.14-.43.43.43,0,0,1,.34-.22A19.86,19.86,0,0,1,49.1,141.54Z"/><path class="cls-1" d="M49.55,133l2,2.56a6.2,6.2,0,0,1,1.37,2.94.13.13,0,0,1-.15.15.29.29,0,0,1-.3-.25,4.14,4.14,0,0,0-.43-1.3,26.14,26.14,0,0,0-2.18-3l-2.69-3.29c-.56-.63-.83-1-.83-1.15a1.08,1.08,0,0,1,.35-.7,2.15,2.15,0,0,1-.55-1.27c0-.57.3-.85.91-.85.9,0,2.13.73,3.69,2.17s2.37,2.65,2.37,3.56-.45,1.27-1.34,1.27A5.32,5.32,0,0,1,49.55,133Zm0-4.22a5.76,5.76,0,0,0-1.18-.92,3,3,0,0,0-1.38-.51c-.32,0-.47.14-.47.41A1.64,1.64,0,0,0,47.3,129a2.3,2.3,0,0,0,1.4.62C49.16,129.62,49.46,129.35,49.57,128.8ZM48,130c1.48,1.69,2.68,2.54,3.62,2.54.4,0,.59-.19.59-.57,0-.63-.75-1.6-2.26-2.92a1.24,1.24,0,0,1-1.34,1.05A1.94,1.94,0,0,1,48,130Z"/><path class="cls-1" d="M27,94.42a10.2,10.2,0,0,0,1-3.21,1.16,1.16,0,0,0,0-.27,2,2,0,0,1,0-.25s0-.06.07-.06.3.14.42.41a1.58,1.58,0,0,1,.16.61,10.49,10.49,0,0,1-1,3.26A4.11,4.11,0,0,1,29,97.82a2,2,0,0,1-.24,1,1,1,0,0,1-.92.52,1.4,1.4,0,0,1-1.23-.82,2.8,2.8,0,0,1-.41-1.43,4.81,4.81,0,0,1,.48-2l-4.14-3.51c-1.16-1-1.95-1.68-2.38-2.12A4.35,4.35,0,0,1,18.64,87a.82.82,0,0,1,.8-.94,1.48,1.48,0,0,1-.14-.44q0-.09.12-.09t.21.21l.13.3A6.25,6.25,0,0,1,23,87.47c1.23.94,1.85,1.68,1.85,2.2a.5.5,0,0,1-.57.56A4.42,4.42,0,0,1,22,89.17a8.69,8.69,0,0,1-2.41-2.72h-.19c-.29,0-.43.12-.43.36,0,.43.51,1.14,1.54,2.11.39.37,1.1,1,2.15,1.86L25.32,93Zm-7-7.91a7.39,7.39,0,0,0,2.13,2.37,4.22,4.22,0,0,0,2,1.06c.15,0,.23-.06.23-.19,0-.3-.45-.82-1.37-1.57A9.57,9.57,0,0,0,20,86.51Zm7.28,9.17a5.14,5.14,0,0,0-.41,2c0,1,.32,1.45,1,1.45s.8-.36.8-1.07A3.4,3.4,0,0,0,27.28,95.68Z"/><path class="cls-1" d="M27.09,85.6c.85.79,1.27,1.36,1.27,1.73s-.17.42-.51.42a2.57,2.57,0,0,1-1.37-.49l-1.14-.87,1.78,1.93a4.94,4.94,0,0,1,1.38,2.3c0,.06,0,.08-.1.08s-.14-.06-.17-.19a2.36,2.36,0,0,0-.23-.59,12.47,12.47,0,0,0-1.3-1.66c-.33-.38-.86-1-1.57-1.71a5.63,5.63,0,0,1-.59-.6.58.58,0,0,1-.12-.31c0-.27.09-.4.28-.4a4.22,4.22,0,0,1,1.45,1,3.56,3.56,0,0,0,1.66,1c.08,0,.12,0,.12-.13q0-.41-1.71-1.8a7.72,7.72,0,0,1-1.71-1.59.24.24,0,0,1,.1-.18.37.37,0,0,1,.23-.09,6.63,6.63,0,0,1,1.51,1,4.66,4.66,0,0,0,1.71,1c.12,0,.18-.07.18-.23s.05-.23.13-.23.14.12.14.34c0,.39-.16.58-.48.58A2.41,2.41,0,0,1,27.09,85.6Z"/><path class="cls-1" d="M23.61,79.68l.1,2.43c0,.13,0,.2-.12.2s-.11-.11-.15-.33-.1-.75-.14-1.31-.08-1.07-.11-1.32l-1.28-1c-.68-.52-1-.83-1-.94s.09-.21.28-.21a7.37,7.37,0,0,1,2,1.23c0-.47-.05-.86-.05-1.17s0-.31.13-.31.17.25.2.75l0,1,2.09,1.51a8.71,8.71,0,0,0,2.45,1.43c.12,0,.19-.08.19-.23s0-.23.12-.23.15.1.15.29c0,.41-.18.61-.54.61a3,3,0,0,1-1.22-.4l-1.09-.58,1.74,2a3.56,3.56,0,0,1,1.1,1.92c0,.06,0,.08-.1.08a.16.16,0,0,1-.17-.13,5.62,5.62,0,0,0-.26-.7,21,21,0,0,0-1.62-2c-.66-.77-1.09-1.26-1.29-1.45A11.14,11.14,0,0,0,23.61,79.68Z"/><path class="cls-1" d="M22.86,75.18c0,.21-.12.32-.37.32a.69.69,0,0,1-.55-.33,1,1,0,0,1-.23-.59c0-.24.15-.36.43-.36a.6.6,0,0,1,.52.36A1.1,1.1,0,0,1,22.86,75.18Zm5.18,3c.13,0,.2-.13.2-.39q0-.09.12-.09t.15.45q0,.51-.54.51a6.82,6.82,0,0,1-2.63-1.51L27,79c1,1.09,1.49,1.88,1.49,2.38,0,.05,0,.08-.1.08a.16.16,0,0,1-.17-.14,2.65,2.65,0,0,0-.31-.78,18.88,18.88,0,0,0-1.52-1.86l-1.92-2.07a1.15,1.15,0,0,1-.05-.36c0-.16.1-.23.29-.23a5.21,5.21,0,0,1,1.7,1.08A5.78,5.78,0,0,0,28,78.16Z"/><path class="cls-1" d="M27.28,75.26A5.79,5.79,0,0,0,28,76.53a2.75,2.75,0,0,1,.53,1.25c0,.06,0,.09-.1.09s-.15-.06-.17-.18a3.75,3.75,0,0,0-.56-1.16A5.08,5.08,0,0,1,27,75.18a4.76,4.76,0,0,1-1.74-1.28,2.9,2.9,0,0,1-1-1.76q0-.54.51-.54c.44,0,.93.38,1.45,1.14a7.87,7.87,0,0,1,.91,1.71,1.24,1.24,0,0,0,.5.1.5.5,0,0,0,.51-.25,1.73,1.73,0,0,0,.06-.46c0-.16.05-.24.13-.24s.2.27.2.83a.77.77,0,0,1-.85.88A1.72,1.72,0,0,1,27.28,75.26Zm-.42-.89A7.62,7.62,0,0,0,26,73.06c-.5-.61-.9-.92-1.2-.92q-.18,0-.18.15,0,.43.9,1.2A5.2,5.2,0,0,0,26.86,74.37Z"/><path class="cls-1" d="M25.19,69.89l-.3,0c-.14,0-.35-.14-.63-.44s-.44-.49-.44-.59a.14.14,0,0,1,.16-.16,1.22,1.22,0,0,1,.45.17c0-.51.23-.76.67-.76a3.37,3.37,0,0,1,1.7,1,6.13,6.13,0,0,0,1.3,1,.13.13,0,0,0,.15-.12v-.22c0-.07,0-.1.12-.1s.16.13.16.4a.44.44,0,0,1-.5.5,2.36,2.36,0,0,1-1.21-.5,11.9,11.9,0,0,1-1.13-.93,3,3,0,0,0-.6-.49.1.1,0,0,0-.11.11,1.46,1.46,0,0,0,.09.38,1.16,1.16,0,0,0,.13.34q3.31,3.14,3.31,4.23c0,.06,0,.08-.1.08s-.15-.06-.17-.18A2.76,2.76,0,0,0,28,73a8.74,8.74,0,0,0-1.28-1.63A15.64,15.64,0,0,0,25.19,69.89Z"/></g></g></g></svg>