<svg xmlns="http://www.w3.org/2000/svg" viewBox="0 0 204.34 72.47"><defs><style>.cls-1,.cls-2{fill:#231f20;}.cls-1{stroke:#231f20;stroke-miterlimit:10;}.cls-3{fill:#fff;}</style></defs><title>Recurso 4</title><g id="Capa_2" data-name="Capa 2"><g id="Capa_4" data-name="Capa 4"><path class="cls-1" d="M9.83,15.79S-5.48,34.13,3.12,55.41C14,82.34,47.26,62.58,47.26,62.58S53.39,74,72.44,71.64c19.47-2.44,28.31-34.58,28.31-34.58l50.18-1.36S153.69,46,163,47.42c9.71,1.53,15.11-7.82,15.11-7.82a11.37,11.37,0,0,0,12.28,3.58c8.79-2.72,13.2-12.71,13.2-12.71S162.52,28.6,152,24.05c-11.26-4.86-10.12-10.46-8.62-14.29,2.43-6.15,7.58-5.28,9.39-3.9,4.7,3.59-4.68,8.34-4.68,8.34s9.12,3.14,10.69-5.37C159.75,3.5,154,1,151.19.57c-3.13-.49-10,1.37-12.26,7.83-1.72,4.94-2.46,12.28,10.62,18.56,10.42,5,46.86,6.38,46.86,6.38s.28,3.1-5.48,6c-6.31,3.18-13.42-3.05-13.42-3.05s-6.59,11.47-15.82,8.39c-7.18-2.4-8.65-11.82-8.65-11.82L96.43,31.25S89.89,67.06,69.49,67.42C54.47,67.68,47.77,57,47.77,57s-30.3,19.37-39.14-4.7c-5-13.49-.64-25.73,6.62-36.79Z"/><circle class="cls-1" cx="167.73" cy="15.51" r="4.33"/><circle class="cls-1" cx="180.91" cy="19.84" r="3.52"/><circle class="cls-1" cx="191.3" cy="21.91" r="2.65"/><circle class="cls-1" cx="200.94" cy="23.41" r="1.9"/><path class="cls-2" d="M32.13,22.7h1.13q.84.09.84.51c0,.18-.21.28-.61.28l-.81,0H31.52L29,26.66c-1.72,2.14-2.66,3.21-2.85,3.21s-.31-.12-.44-.36A1,1,0,0,1,25.5,29q0-.39,4.23-5.5h-1q-2,0-6,.22l-4.2,3.59-1.63,1.46a5,5,0,0,1-1.61,1.15.32.32,0,0,1-.35-.36q0-.45,3.6-3.44l2.85-2.37q-5.71.27-5.9.57h0c0,.16.59.24,1.78.24l1.67,0c.22,0,.33,0,.33.15s-.9.35-2.71.35c-1.54,0-2.31-.19-2.31-.58s.45-.84,1.36-1a17.48,17.48,0,0,1,1.92-.19l4.85-.32q2.94-2.43,8.4-6.31,7-4.92,8.3-4.92c.45,0,.68.29.68.87S39.16,14,38,15.44Zm-1.79,0,5.84-7.09,1.08-1.32a8.26,8.26,0,0,0,.92-1.36l0,0a.12.12,0,0,0-.13-.13q-.59,0-7.4,5l-6.84,5.08Z"/><path class="cls-2" d="M37.52,24.37c0-.27-.06-.44-.06-.5,0-.22.27-.57.8-1.05s.9-.72,1.1-.72.29.09.29.27a2,2,0,0,1-.31.74c.93,0,1.4.38,1.4,1.12,0,.59-.6,1.53-1.81,2.81a11,11,0,0,0-1.81,2.17.23.23,0,0,0,.23.25h.41c.11,0,.17.06.17.2s-.24.26-.72.26-.92-.28-.92-.83a3.59,3.59,0,0,1,.92-2,18.29,18.29,0,0,1,1.69-1.88,6.59,6.59,0,0,0,.92-1c0-.13-.07-.19-.21-.19a3.69,3.69,0,0,0-.7.14,2.21,2.21,0,0,0-.62.23q-5.79,5.49-7.8,5.49c-.1,0-.15-.06-.15-.17s.11-.24.34-.28A5.25,5.25,0,0,0,31.76,29a15.42,15.42,0,0,0,3-2.13A27.45,27.45,0,0,0,37.52,24.37Z"/><path class="cls-2" d="M43.18,27.07c-1.17.91-1.92,1.48-2.25,1.69a5.19,5.19,0,0,1-2.55,1.11c-.11,0-.16-.05-.16-.15s.1-.25.3-.3a9.32,9.32,0,0,0,3.27-1.82l3.48-2.77C47,23.6,48.22,23,49.07,23s1,.39,1,1.18c.39-.45.67-.67.84-.67s.36.13.36.41S49.9,26,47.12,29.48a1.83,1.83,0,0,0,.28,0h.28c.1,0,.16.06.16.2s-.16.23-.49.27l-.64,0q-6.06,7.51-8.91,7.51c-.78,0-1.17-.33-1.17-1q0-1.58,2.32-3.69a14.32,14.32,0,0,1,6.49-3.1,21.73,21.73,0,0,0,1.73-2.18c-.85.74-1.38,1.19-1.61,1.35a3.48,3.48,0,0,1-1.89.83c-.61,0-.91-.37-.91-1.1A3.44,3.44,0,0,1,43.18,27.07ZM45,30.3a13.3,13.3,0,0,0-5.35,2.8c-1.72,1.41-2.58,2.53-2.58,3.35,0,.35.16.52.46.52q1,0,3.9-2.78A42.65,42.65,0,0,0,45,30.3ZM49.64,24c0-.3-.13-.45-.41-.45-.53,0-1.55.73-3.07,2.18s-2.27,2.47-2.27,3.05c0,.21.08.31.24.31.46,0,1.49-.7,3.07-2.1S49.64,24.52,49.64,24Z"/><path class="cls-2" d="M52.92,27.85A10.94,10.94,0,0,0,50.58,29a5.31,5.31,0,0,1-2.3.87c-.1,0-.15-.06-.15-.17s.11-.25.32-.28a6.85,6.85,0,0,0,2.14-.93,9.74,9.74,0,0,1,2.48-1.08,8.07,8.07,0,0,1,2.36-2.9,5.46,5.46,0,0,1,3.25-1.63c.66,0,1,.28,1,.84,0,.74-.71,1.54-2.11,2.42a15,15,0,0,1-3.16,1.51,2.16,2.16,0,0,0-.17.83.82.82,0,0,0,.45.84,2.77,2.77,0,0,0,.85.11c.3,0,.45.08.45.22s-.51.32-1.53.32-1.63-.47-1.63-1.41A3.21,3.21,0,0,1,52.92,27.85Zm1.64-.69A15.26,15.26,0,0,0,57,25.64c1.13-.84,1.7-1.5,1.7-2,0-.2-.09-.3-.28-.3-.54,0-1.27.5-2.2,1.49A8.49,8.49,0,0,0,54.56,27.16Z"/><path class="cls-2" d="M64.6,24.31l-4,3.28c-2,1.52-3.41,2.28-4.21,2.28-.1,0-.15-.06-.15-.17a.28.28,0,0,1,.25-.28,5.67,5.67,0,0,0,1.4-.5,28.27,28.27,0,0,0,3.29-2.39q1.13-.88,3.26-2.81c.53-.55.91-.83,1.15-.83q.69,0,.69.45a6,6,0,0,1-1.4,2.37q2.7-2.49,3.74-2.49a1.1,1.1,0,0,1,.64.22.67.67,0,0,1,.28.56,3,3,0,0,1-.67,1.45c1.68-1.65,3-2.47,4-2.47.55,0,.83.22.83.67s-.68,1.56-2,3-2,2.23-2,2.51.14.33.43.33.44.08.44.21-.24.25-.73.25c-.65,0-1-.29-1-.86s.59-1.65,1.77-3a11.65,11.65,0,0,0,1.78-2.26q0-.15-.18-.15c-.5,0-1.59.78-3.26,2.35a32.08,32.08,0,0,0-3.06,3.15c-.4.5-.7.74-.89.74s-.48-.15-.48-.44.65-1.19,2-2.64,2-2.35,2-2.69c0-.15-.09-.22-.25-.22-.44,0-1.42.72-2.95,2.16A30,30,0,0,0,62.39,29c-.42.55-.79.82-1.11.82s-.42-.12-.42-.37a8.33,8.33,0,0,1,1.73-2.62Z"/><path class="cls-2" d="M76.79,29.11c0,.22.24.34.73.34.11,0,.16.06.16.2s-.27.24-.82.24-.94-.29-.94-.89.92-2.15,2.77-4.37L75.3,27.41q-3,2.46-4.37,2.46c-.1,0-.15-.06-.15-.17a.27.27,0,0,1,.25-.28,4.77,4.77,0,0,0,1.43-.51,36.08,36.08,0,0,0,3.43-2.52L79.7,23.2a2,2,0,0,1,.67-.09c.28,0,.43.16.43.49s-.67,1.28-2,2.81A10,10,0,0,0,76.79,29.11Zm5.5-8.61a.53.53,0,0,1-.6-.61A1.13,1.13,0,0,1,82.3,19a1.93,1.93,0,0,1,1.1-.37c.43,0,.64.23.64.7a1,1,0,0,1-.64.88A2.3,2.3,0,0,1,82.29,20.5Z"/><path class="cls-2" d="M85.15,24.37c0-.27-.06-.44-.06-.5,0-.22.27-.57.8-1.05s.91-.72,1.11-.72.28.09.28.27a1.8,1.8,0,0,1-.31.74c.94,0,1.41.38,1.41,1.12,0,.59-.61,1.53-1.81,2.81a10.55,10.55,0,0,0-1.81,2.17.23.23,0,0,0,.23.25h.4c.12,0,.17.06.17.2s-.24.26-.72.26-.92-.28-.92-.83a3.66,3.66,0,0,1,.92-2,18.59,18.59,0,0,1,1.7-1.88,7.35,7.35,0,0,0,.92-1c0-.13-.07-.19-.21-.19a3.6,3.6,0,0,0-.71.14,2.09,2.09,0,0,0-.61.23q-5.79,5.49-7.81,5.49c-.1,0-.15-.06-.15-.17s.12-.24.34-.28A5.25,5.25,0,0,0,79.39,29a15.12,15.12,0,0,0,3-2.13A26.38,26.38,0,0,0,85.15,24.37Z"/><path class="cls-2" d="M91.5,26.55,88.94,28.5A6.2,6.2,0,0,1,86,29.87a.13.13,0,0,1-.15-.15.28.28,0,0,1,.25-.3A4.14,4.14,0,0,0,87.4,29a26.14,26.14,0,0,0,3-2.18l3.29-2.69c.63-.56,1-.83,1.16-.83a1.11,1.11,0,0,1,.69.34,2.22,2.22,0,0,1,1.27-.54c.57,0,.85.3.85.91,0,.9-.72,2.13-2.17,3.69S92.87,30.06,92,30.06s-1.27-.45-1.27-1.34A5.32,5.32,0,0,1,91.5,26.55Zm3-1.53C92.81,26.5,92,27.7,92,28.64a.52.52,0,0,0,.58.59c.62,0,1.59-.75,2.91-2.26a1.24,1.24,0,0,1-1-1.34A1.94,1.94,0,0,1,94.5,25Zm1.22,1.55a5.52,5.52,0,0,0,.92-1.19A3,3,0,0,0,97.15,24c0-.32-.14-.48-.41-.48a1.68,1.68,0,0,0-1.22.77,2.3,2.3,0,0,0-.62,1.4C94.9,26.16,95.17,26.46,95.72,26.57Z"/><path class="cls-2" d="M35.18,37.94a11.53,11.53,0,0,1-2.63,4.51q-2.37,2.82-4,2.82c-.67,0-1-.32-1-1q0-1.43,2.63-3.81A14.7,14.7,0,0,1,34.2,37.7a1.75,1.75,0,0,0,.13-.65q0-1-1-1c-1.52,0-3.6.88-6.26,2.62a46.6,46.6,0,0,0-7.17,5.81q-3,3.57-3,5.93c0,1.27.76,1.91,2.27,1.91a8.85,8.85,0,0,0,3.58-.88,17.09,17.09,0,0,0,2.8-1.66l1.18-.88c.14,0,.2.12.2.36,0,.6-.59,1.28-1.76,2.05a16.15,16.15,0,0,1-2.62,1.38,7.38,7.38,0,0,1-2.82.6A3.88,3.88,0,0,1,17,52.38a3.17,3.17,0,0,1-1.13-2.53q0-3.29,4-7.22a27.15,27.15,0,0,1,6.9-5.05q4.19-2.11,6.37-2.12a1.84,1.84,0,0,1,2.12,1.9,1.87,1.87,0,0,1,.58-.15.21.21,0,0,1,.23.24C36,37.59,35.75,37.75,35.18,37.94Zm-1.26.44a14,14,0,0,0-4,3.11c-1.22,1.36-1.83,2.23-1.83,2.62q0,.27.21.27c.58,0,1.58-.83,3-2.51A20.67,20.67,0,0,0,33.92,38.38Z"/><path class="cls-2" d="M31.25,50.25C29,52,27.51,52.87,26.67,52.87c-.1,0-.15-.06-.15-.17s.1-.25.3-.28a8,8,0,0,0,3.23-1.8l1.61-1.26,2.58-2a5.57,5.57,0,0,1,3-1.22.94.94,0,0,1,1,.93c.33-.31.55-.46.68-.46s.41.11.41.34-.64,1.18-1.91,2.67a9.84,9.84,0,0,0-1.91,2.59c0,.18.13.27.41.27s.41.08.41.22-.28.26-.85.26-.83-.25-.83-.74a3.58,3.58,0,0,1,.67-1.67l-1.54,1.31a3.49,3.49,0,0,1-1.81.85A1,1,0,0,1,31,51.57,3.63,3.63,0,0,1,31.25,50.25Zm6.18-3.65q-.74,0-3,2.19c-1.54,1.47-2.31,2.44-2.31,2.93,0,.23.11.34.33.34.47,0,1.49-.72,3-2.15s2.33-2.4,2.33-2.9C37.79,46.73,37.67,46.6,37.43,46.6Z"/><path class="cls-2" d="M46.78,44.74l-4.48.18c-.25,0-.37-.07-.37-.2s.2-.19.61-.25c.57-.09,1.37-.17,2.41-.24s2-.13,2.43-.18l1.78-2.13c1-1.13,1.53-1.69,1.73-1.69s.37.15.37.47-.75,1.46-2.26,3.35Q50.3,44,51.16,44c.38,0,.57.07.57.22s-.46.28-1.38.34l-1.89.06-2.77,3.47c-1.76,2.28-2.63,3.63-2.63,4.07,0,.21.14.32.42.32s.43.07.43.21-.19.24-.55.24c-.74,0-1.11-.29-1.11-.89A4.79,4.79,0,0,1,43,50l1.09-1.82-3.69,2.9c-1.53,1.21-2.71,1.82-3.54,1.82-.1,0-.15-.06-.15-.17a.28.28,0,0,1,.25-.28A8.55,8.55,0,0,0,38.21,52a36.41,36.41,0,0,0,3.71-2.69c1.41-1.1,2.31-1.81,2.67-2.15A19.63,19.63,0,0,0,46.78,44.74Z"/><path class="cls-2" d="M48.92,50.25q-3.31,2.63-4.58,2.62c-.1,0-.15-.06-.15-.17s.1-.25.3-.28a8.13,8.13,0,0,0,3.24-1.8l1.6-1.26,2.58-2a5.62,5.62,0,0,1,3-1.22A1,1,0,0,1,56,47c.32-.31.55-.46.67-.46.28,0,.41.11.41.34s-.63,1.18-1.91,2.67a10.13,10.13,0,0,0-1.91,2.59c0,.18.14.27.41.27s.41.08.41.22-.28.26-.84.26-.84-.25-.84-.74a3.69,3.69,0,0,1,.67-1.67l-1.54,1.31a3.44,3.44,0,0,1-1.8.85,1,1,0,0,1-1.07-1.09A3.6,3.6,0,0,1,48.92,50.25Zm6.19-3.65c-.49,0-1.5.73-3,2.19s-2.3,2.44-2.3,2.93c0,.23.11.34.32.34.48,0,1.49-.72,3-2.15s2.33-2.4,2.33-2.9C55.47,46.73,55.35,46.6,55.11,46.6Z"/><path class="cls-2" d="M62.8,49.1q3.42-2.9,4.8-2.9c.59,0,.89.28.89.83s-.67,1.38-2,2.66-2,2.05-2,2.32.15.41.45.43.46.09.46.22-.3.25-.9.25-1-.31-1-.93a3.42,3.42,0,0,1,1-1.95c.34-.41,1-1,1.84-1.89.67-.63,1-1,1-1.14s-.07-.17-.22-.17c-.48,0-1.51.64-3.09,1.9A30.67,30.67,0,0,0,61,51.31c-.81.86-1.3,1.29-1.48,1.29a.48.48,0,0,1-.36-.2A.6.6,0,0,1,59,52a10.13,10.13,0,0,1,1.72-2.32l2-2.42-3.19,2.59-2.35,1.8a5.69,5.69,0,0,1-2.75,1.22.14.14,0,0,1-.16-.15c0-.15.12-.25.35-.3a5.31,5.31,0,0,0,1.11-.37,23.8,23.8,0,0,0,3.7-2.67q2.52-2,3.63-3.12a4.58,4.58,0,0,1,.58-.45,1.2,1.2,0,0,1,.42-.07.78.78,0,0,1,.43.14.41.41,0,0,1,.22.34A18.9,18.9,0,0,1,62.8,49.1Zm2.8-5.4A.93.93,0,0,0,65,44c-.22.22-.36.33-.43.33s-.21-.07-.21-.22a1.53,1.53,0,0,1,.53-.85,1.45,1.45,0,0,1,.85-.54,4.67,4.67,0,0,1,1.4.41,4.73,4.73,0,0,0,1.49.41.92.92,0,0,0,.66-.32c.22-.21.35-.31.4-.31s.11,0,.11.15a1.33,1.33,0,0,1-.5.85,1.4,1.4,0,0,1-.9.49,4.7,4.7,0,0,1-1.49-.36A4.83,4.83,0,0,0,65.6,43.7Z"/><path class="cls-2" d="M71.33,49.55l-2.57,2a6.22,6.22,0,0,1-2.93,1.37.13.13,0,0,1-.15-.15.27.27,0,0,1,.25-.3A4.16,4.16,0,0,0,67.22,52a26.89,26.89,0,0,0,3-2.18l3.28-2.69c.63-.56,1-.83,1.16-.83a1.06,1.06,0,0,1,.69.34,2.24,2.24,0,0,1,1.28-.54c.56,0,.84.3.84.91q0,1.35-2.16,3.69c-1.47,1.58-2.66,2.37-3.56,2.37s-1.27-.45-1.27-1.34A5.32,5.32,0,0,1,71.33,49.55Zm3-1.53c-1.7,1.48-2.54,2.68-2.54,3.62a.51.51,0,0,0,.57.59c.62,0,1.59-.75,2.91-2.26a1.23,1.23,0,0,1-1-1.34A1.94,1.94,0,0,1,74.33,48Zm1.22,1.55a6.23,6.23,0,0,0,.92-1.19A3,3,0,0,0,77,47c0-.32-.14-.48-.41-.48a1.68,1.68,0,0,0-1.23.77,2.36,2.36,0,0,0-.62,1.4C74.72,49.16,75,49.46,75.55,49.57Z"/><path class="cls-2" d="M109.93,27a10.21,10.21,0,0,0,3.2,1,1.31,1.31,0,0,0,.27-.05l.25,0s.06,0,.06.07-.13.3-.41.42a1.58,1.58,0,0,1-.61.16,10.49,10.49,0,0,1-3.26-1A4.11,4.11,0,0,1,106.52,29a2,2,0,0,1-1-.24,1,1,0,0,1-.53-.92,1.42,1.42,0,0,1,.82-1.23,2.81,2.81,0,0,1,1.44-.41,4.76,4.76,0,0,1,2,.48l3.51-4.14c1-1.16,1.68-1.95,2.12-2.38a4.34,4.34,0,0,1,2.57-1.53.82.82,0,0,1,.93.8,1.48,1.48,0,0,1,.44-.14q.09,0,.09.12t-.21.21l-.29.13A6.27,6.27,0,0,1,116.87,23c-.94,1.23-1.67,1.85-2.2,1.85a.5.5,0,0,1-.56-.57A4.51,4.51,0,0,1,115.17,22a8.69,8.69,0,0,1,2.72-2.41,1.58,1.58,0,0,0,0-.19c0-.29-.12-.43-.35-.43-.44,0-1.14.51-2.12,1.54-.37.39-1,1.1-1.86,2.15l-2.2,2.64Zm-1.27.26a5.06,5.06,0,0,0-2-.41c-1,0-1.45.32-1.45,1s.35.8,1.06.8A3.4,3.4,0,0,0,108.66,27.28ZM117.84,20a7.42,7.42,0,0,0-2.38,2.13,4.31,4.31,0,0,0-1.06,2c0,.15.07.23.19.23.3,0,.82-.45,1.57-1.37A9.4,9.4,0,0,0,117.84,20Z"/><path class="cls-2" d="M118.74,27.09c-.78.85-1.36,1.27-1.73,1.27s-.42-.17-.42-.51a2.66,2.66,0,0,1,.49-1.37l.87-1.14L116,27.12a4.94,4.94,0,0,1-2.3,1.38s-.08,0-.08-.1.07-.14.2-.17a2.47,2.47,0,0,0,.58-.23,11.82,11.82,0,0,0,1.66-1.3c.39-.33,1-.86,1.71-1.57a6,6,0,0,1,.61-.59.53.53,0,0,1,.31-.12c.26,0,.39.09.39.28a4.13,4.13,0,0,1-.95,1.45,3.5,3.5,0,0,0-.94,1.66c0,.08,0,.13.12.13.27,0,.87-.58,1.8-1.72s1.46-1.71,1.59-1.71a.24.24,0,0,1,.19.11.33.33,0,0,1,.09.22,6.9,6.9,0,0,1-1,1.51,4.66,4.66,0,0,0-1,1.71c0,.12.08.18.23.18s.23.05.23.13-.11.14-.34.14-.57-.16-.57-.48A2.36,2.36,0,0,1,118.74,27.09Z"/><path class="cls-2" d="M124.67,23.61l-2.44.1c-.13,0-.2,0-.2-.12s.11-.11.33-.15.75-.1,1.31-.14,1.07-.08,1.32-.11l1-1.28c.51-.68.83-1,.94-1s.2.1.2.28a7.37,7.37,0,0,1-1.23,2c.47,0,.86-.05,1.17-.05s.32,0,.32.13-.25.17-.75.2l-1,0-1.51,2.09a8.54,8.54,0,0,0-1.42,2.45c0,.12.07.19.23.19s.23,0,.23.13-.1.14-.3.14q-.6,0-.6-.54a3.11,3.11,0,0,1,.39-1.22l.59-1.09-2,1.74a3.61,3.61,0,0,1-1.93,1.1c-.05,0-.08,0-.08-.1a.16.16,0,0,1,.13-.17A4.35,4.35,0,0,0,120,28a21,21,0,0,0,2-1.62c.77-.66,1.26-1.09,1.46-1.29A13.06,13.06,0,0,0,124.67,23.61Z"/><path class="cls-2" d="M126.18,28c0,.13.13.2.4.2.06,0,.09,0,.09.13s-.15.14-.45.14-.51-.18-.51-.54a6.73,6.73,0,0,1,1.5-2.63L125.37,27c-1.09,1-1.88,1.49-2.37,1.49-.06,0-.08,0-.08-.1a.15.15,0,0,1,.13-.17,2.32,2.32,0,0,0,.78-.31,18.88,18.88,0,0,0,1.86-1.52l2.07-1.92a1.18,1.18,0,0,1,.37-.05c.15,0,.23.1.23.29a5.34,5.34,0,0,1-1.09,1.7A5.78,5.78,0,0,0,126.18,28Zm3-5.18c-.22,0-.33-.12-.33-.37a.69.69,0,0,1,.33-.55,1,1,0,0,1,.6-.23c.23,0,.35.15.35.43a.61.61,0,0,1-.35.52A1.16,1.16,0,0,1,129.17,22.86Z"/><path class="cls-2" d="M129.08,27.28a5.79,5.79,0,0,0-1.27.69,2.75,2.75,0,0,1-1.25.53c-.06,0-.08,0-.08-.1s.06-.15.17-.17a3.65,3.65,0,0,0,1.16-.56,5.08,5.08,0,0,1,1.35-.66,4.88,4.88,0,0,1,1.28-1.74,2.89,2.89,0,0,1,1.77-1q.54,0,.54.51c0,.44-.38.93-1.15,1.45a7.26,7.26,0,0,1-1.71.91,1.44,1.44,0,0,0-.1.5.52.52,0,0,0,.25.51,1.62,1.62,0,0,0,.46.07c.17,0,.25,0,.25.13s-.28.19-.84.19-.88-.28-.88-.85A2.37,2.37,0,0,1,129.08,27.28Zm.89-.41a8.34,8.34,0,0,0,1.31-.92c.61-.5.92-.9.92-1.2q0-.18-.15-.18-.44,0-1.2.9A5.08,5.08,0,0,0,130,26.87Z"/><path class="cls-2" d="M134.46,25.19a2.38,2.38,0,0,1,0-.3c0-.14.15-.35.44-.63s.49-.44.6-.44a.14.14,0,0,1,.15.16,1.22,1.22,0,0,1-.17.45c.51,0,.77.23.77.67a3.42,3.42,0,0,1-1,1.7,6.59,6.59,0,0,0-1,1.3.13.13,0,0,0,.13.15h.22c.06,0,.09,0,.09.13s-.13.15-.39.15a.44.44,0,0,1-.5-.49,2.28,2.28,0,0,1,.5-1.22,10.23,10.23,0,0,1,.92-1.13,3.39,3.39,0,0,0,.5-.6c0-.07,0-.11-.12-.11a1.66,1.66,0,0,0-.38.09.74.74,0,0,0-.33.14q-3.15,3.3-4.24,3.3s-.08,0-.08-.1.06-.15.18-.17a2.57,2.57,0,0,0,.59-.23A8.42,8.42,0,0,0,133,26.72,15.92,15.92,0,0,0,134.46,25.19Z"/><g id="fix"><polygon class="cls-2" points="37.61 29.45 38.5 29.43 38.54 29.85 37.68 29.85 37.61 29.45"/><polygon class="cls-2" points="47.61 29.45 48.31 29.47 48.31 29.85 47.59 29.87 47.61 29.45"/><polygon class="cls-2" points="55.73 29.46 56.47 29.43 56.47 29.87 55.66 29.87 55.73 29.46"/><polygon class="cls-2" points="70.33 29.49 70.92 29.44 70.92 29.87 70.22 29.87 70.33 29.49"/><polygon class="cls-2" points="77.51 29.45 78.15 29.49 78.15 29.87 77.46 29.82 77.51 29.45"/><polygon class="cls-2" points="85.4 29.45 86.02 29.45 86 29.87 85.33 29.85 85.4 29.45"/><polygon class="cls-2" points="36.19 52.46 36.81 52.46 36.81 52.87 36.08 52.87 36.19 52.46"/><polygon class="cls-2" points="43.7 52.46 44.35 52.46 44.35 52.87 43.66 52.87 43.7 52.46"/><polygon class="cls-2" points="53.86 52.46 54.56 52.46 54.56 52.86 53.75 52.86 53.86 52.46"/><polygon class="cls-2" points="65.84 52.45 65.16 52.47 65.14 52.84 65.84 52.87 65.84 52.45"/><polygon class="cls-2" points="113.38 28.39 113.88 28.39 113.88 28.21 113.36 28.02 113.38 28.39"/><polygon class="cls-3" points="117.26 29.47 117.15 29.69 116.63 29.5 116.81 29.27 117.26 29.47"/></g></g></g></svg>