<svg xmlns="http://www.w3.org/2000/svg" viewBox="0 0 204.34 72.47"><defs><style>.cls-1,.cls-2,.cls-4,.cls-5{fill:#231f20;}.cls-1{stroke:#231f20;stroke-miterlimit:10;}.cls-2{font-size:25.48px;letter-spacing:0.03em;}.cls-2,.cls-4{font-family:VladimirScript, Vladimir Script;}.cls-3{letter-spacing:0.02em;}.cls-4{font-size:15.33px;}.cls-6{fill:#fff;}</style></defs><title>Recurso 4</title><g id="Capa_2" data-name="Capa 2"><g id="Capa_4" data-name="Capa 4"><path class="cls-1" d="M9.83,15.79S-5.48,34.13,3.12,55.41C14,82.34,47.26,62.58,47.26,62.58S53.39,74,72.44,71.64c19.47-2.44,28.31-34.58,28.31-34.58l50.18-1.36S153.69,46,163,47.42c9.71,1.53,15.11-7.82,15.11-7.82a11.37,11.37,0,0,0,12.28,3.58c8.79-2.72,13.2-12.71,13.2-12.71S162.52,28.6,152,24.05c-11.26-4.86-10.12-10.46-8.62-14.29,2.43-6.15,7.58-5.28,9.39-3.9,4.7,3.59-4.68,8.34-4.68,8.34s9.12,3.14,10.69-5.37C159.75,3.5,154,1,151.19.57c-3.13-.49-10,1.37-12.26,7.83-1.72,4.94-2.46,12.28,10.62,18.56,10.42,5,46.86,6.38,46.86,6.38s.28,3.1-5.48,6c-6.31,3.18-13.42-3.05-13.42-3.05s-6.59,11.47-15.82,8.39c-7.18-2.4-8.65-11.82-8.65-11.82L96.43,31.25S89.89,67.06,69.49,67.42C54.47,67.68,47.77,57,47.77,57s-30.3,19.37-39.14-4.7c-5-13.49-.64-25.73,6.62-36.79Z"/><circle class="cls-1" cx="167.73" cy="15.51" r="4.33"/><circle class="cls-1" cx="180.91" cy="19.84" r="3.52"/><circle class="cls-1" cx="191.3" cy="21.91" r="2.65"/><circle class="cls-1" cx="200.94" cy="23.41" r="1.9"/><text class="cls-2" transform="translate(13.43 29.87)">Argemiro<tspan class="cls-3"><tspan x="0" y="23">Cataño</tspan></tspan></text><text class="cls-4" transform="translate(106.48 28.5) scale(0.9 1)">Lutier</text><g id="fix"><polygon class="cls-5" points="37.61 29.45 38.5 29.43 38.54 29.85 37.68 29.85 37.61 29.45"/><polygon class="cls-5" points="47.61 29.45 48.31 29.47 48.31 29.85 47.59 29.87 47.61 29.45"/><polygon class="cls-5" points="55.73 29.46 56.47 29.43 56.47 29.87 55.66 29.87 55.73 29.46"/><polygon class="cls-5" points="70.33 29.49 70.92 29.44 70.92 29.87 70.22 29.87 70.33 29.49"/><polygon class="cls-5" points="77.51 29.45 78.15 29.49 78.15 29.87 77.46 29.82 77.51 29.45"/><polygon class="cls-5" points="85.4 29.45 86.02 29.45 86 29.87 85.33 29.85 85.4 29.45"/><polygon class="cls-5" points="36.19 52.46 36.81 52.46 36.81 52.87 36.08 52.87 36.19 52.46"/><polygon class="cls-5" points="43.7 52.46 44.35 52.46 44.35 52.87 43.66 52.87 43.7 52.46"/><polygon class="cls-5" points="53.86 52.46 54.56 52.46 54.56 52.86 53.75 52.86 53.86 52.46"/><polygon class="cls-5" points="65.84 52.45 65.16 52.47 65.14 52.84 65.84 52.87 65.84 52.45"/><polygon class="cls-5" points="113.38 28.39 113.88 28.39 113.88 28.21 113.36 28.02 113.38 28.39"/><polygon class="cls-6" points="117.26 29.47 117.15 29.69 116.63 29.5 116.81 29.27 117.26 29.47"/></g></g></g></svg>